<?xml version="1.0" standalone="no"?>
<!DOCTYPE svg PUBLIC "-//W3C//DTD SVG 20010904//EN"
 "http://www.w3.org/TR/2001/REC-SVG-20010904/DTD/svg10.dtd">
<svg version="1.0" xmlns="http://www.w3.org/2000/svg"
 width="225.000000pt" height="225.000000pt" viewBox="0 0 225.000000 225.000000"
 preserveAspectRatio="xMidYMid meet">

<g transform="translate(0.000000,225.000000) scale(0.100000,-0.100000)"
fill="#000000" stroke="none">
<path d="M25 1838 c-22 -26 -26 -39 -21 -67 3 -21 16 -45 31 -58 l26 -23 1064
0 1064 0 26 23 c15 13 28 37 31 58 5 28 1 41 -21 67 l-27 32 -1073 0 -1073 0
-27 -32z"/>
<path d="M51 1206 c-26 -15 -50 -51 -51 -79 0 -30 27 -72 55 -85 20 -9 282
-12 1071 -12 1135 0 1086 -2 1112 55 15 33 15 47 0 80 -26 57 24 55 -1115 55
-851 -1 -1052 -3 -1072 -14z"/>
<path d="M35 538 c-15 -14 -28 -38 -31 -59 -5 -28 -1 -41 21 -67 l27 -32 1073
0 1073 0 27 32 c22 26 26 39 21 67 -3 21 -16 45 -31 59 l-26 22 -1064 0 -1064
0 -26 -22z"/>
</g>
</svg>
